# xmcd
#
# Track frame offsets:
#	151
#	35648
#	58431
#	72120
#	83597
#	96428
#	109259
#	120242
#	135691
#	146196
#	157773
#	167888
#	177709
#	187712
#	201965
#	215858
#	232025
#	240974
#
# Disc length: 3440 seconds
#
# Revision: 1
# Processed by: cddbd v1.5.2PL0 Copyright (c) Steve Scherf et al.
# Submitted via: audiograbber 1.83.01
#
DISCID=090d6e12
DTITLE=Peter Green's Fleetwood Mac - live at the BBC
DYEAR=1995
DGENRE=
TTITLE0=Rattlesnake Shake
TTITLE1=Sandy Mary
TTITLE2=I Believe My Time Ain't Long
TTITLE3=Altough The Sun Is Shining
TTITLE4=Only You
TTITLE5=You Never Now What You're Missing
TTITLE6=Oh Well
TTITLE7=Can't Believe You Wanna Leave
TTITLE8=Jenny Lee
TTITLE9=Heavenly
TTITLE10=When Will I Be Loved
TTITLE11=When I See My Baby
TTITLE12=Buddy's Song
TTITLE13=Honey Hush
TTITLE14=Preachin'
TTITLE15=Jumpin' At Shadows
TTITLE16=Preachin' Blues
TTITLE17=Need Your Love So Bad
EXTD=
EXTT0=
EXTT1=
EXTT2=
EXTT3=
EXTT4=
EXTT5=
EXTT6=
EXTT7=
EXTT8=
EXTT9=
EXTT10=
EXTT11=
EXTT12=
EXTT13=
EXTT14=
EXTT15=
EXTT16=
EXTT17=
PLAYORDER=
